<svg width="36" height="36" xmlns="http://www.w3.org/2000/svg"><defs><linearGradient x1="85.355%" y1="14.645%" x2="14.645%" y2="85.355%" id="a"><stop stop-color="#FF2D55" offset="0%"/><stop stop-color="#FFBC5B" offset="100%"/></linearGradient><linearGradient x1="49.966%" y1="0%" x2="49.966%" y2="100%" id="b"><stop stop-color="#A524B3" offset="0%"/><stop stop-color="#FF2D55" offset="100%"/></linearGradient><linearGradient x1="49.966%" y1="0%" x2="49.966%" y2="100%" id="c"><stop stop-color="#A524B3" offset="0%"/><stop stop-color="#FF2D55" offset="100%"/></linearGradient></defs><g fill="none" fill-rule="evenodd"><circle fill="url(#a)" cx="18" cy="18" r="18"/><path fill="url(#b)" d="M11.313 0v13.5h11.25z" transform="translate(1.44 11.7)"/><path fill="#FFF" d="M1.503 25.2h11.25V11.7z"/><path d="M7.2 32.4A17.925 17.925 0 0018 36c4.05 0 7.794-1.341 10.8-3.6H7.2z" fill="#FF2D55"/><path d="M3.6 28.8a18.435 18.435 0 003.6 3.6h21.6a18.435 18.435 0 003.6-3.6H3.6z" fill="#FC9965"/><path d="M24.147 25.2H1.503A17.923 17.923 0 003.6 28.8h20.556v-3.6h-.009z" fill="#FFBC5B"/><path fill="url(#c)" d="M8.307 0v9.9h8.253z" transform="translate(15.84 18.9)"/><path fill="#FFF" d="M15.903 28.8h8.244v-9.9z"/><circle fill="#FFC95B" cx="24.147" cy="11.7" r="4.5"/><circle fill="#FFC95B" cx="12.753" cy="6.75" r="2.25"/></g></svg>