<svg enable-background="new 0 0 2001.6 2004.6" viewBox="0 0 2001.6 2004.6" xmlns="http://www.w3.org/2000/svg"><path d="m1028.3 1.2c3.3.4 6.3 1.5 9.6 1.5 167.9 5.9 321.7 56.8 463 147.2 23.2 15.1 45.8 31.7 68.3 47.6 2.6 1.8 4.8 4.1 6.6 5.2-75.3 75.3-150.2 150.2-225.4 225.4-105.9-68.6-222.8-104-350.1-103.7-127.3 0-244.6 34.3-350.5 102.6-75.3-75.3-150.2-150.2-225.1-225.1 0 0 1.5-1.5 3-2.6 104.4-79.3 218.8-137.6 346-169.7 61.6-15.5 124-24.7 187.4-26.6 3.7 0 7.7-1.1 11.4-1.5 18.2-.3 37-.3 55.8-.3z"/><path d="m2001.2 1039.4c-.7 3.7-1.5 7.4-1.5 11.4-3 91.1-21.8 178.9-52.4 264.5-33.9 94.8-83 181.2-143.9 260.8-.7 1.1-1.8 1.8-1.5 1.8-74.9-74.9-149.4-149.4-225.1-225.1 69-105.2 104.8-222.5 105.2-350.5s-35.4-245-104.8-350.5c75.3-75.3 150.2-150.2 225.4-225.1.4.4 1.8 1.8 3.3 3.7 79.3 103.3 137.6 217.3 169.3 343.9 12.2 48 19.9 96.7 24 145.7.7 8.5.4 17.3.7 26.2.4 3.7 1.1 7.4 1.5 11.4-.2 27.6-.2 54.9-.2 81.8z"/><path d="m1351.9 1580.3 224 224c-.7.7-1.8 1.8-3.3 3-97.4 74.2-204 129.9-321.7 162.7-54.6 15.1-109.9 25.5-166.4 30.6-55 4.8-109.6 5.5-164.6 1.1-130.6-10.3-253.1-47.6-367.5-111.1-42.8-24-83.8-50.9-122.9-80.8-2.6-1.8-4.8-4.1-6.6-5.2 74.9-74.9 149.1-149.1 224-224 105.9 71.6 223.6 108.5 352.7 108.1 128.7-.3 246.4-37.5 352.3-108.4z"/><path d="m198.9 427.7c74.5 74.6 149.1 149.1 224.3 224.3-70.1 105.9-105.5 223.2-105.5 351.2 0 127.7 36.5 244.6 105.9 350.1-75.3 75.3-150.2 150.2-225.1 224.7-280.7-355.6-248.3-844 .4-1150.3z"/><path d="m194.9 1651.9c86.3 0 156.8 70.5 156.4 156.8s-70.8 156.4-156.8 156.4c-86.3 0-156.4-70.5-156.4-156.8s70.4-156.4 156.8-156.4z"/><path d="m1654.4 193.1c0-86.3 70.1-156.4 156.4-156.4 86 0 156.4 70.5 156.8 156.4 0 86-70.5 156.4-156.8 156.4s-156.4-70.1-156.4-156.4z"/><path d="m190.8 346.6c-86.7 0-156.8-69.8-156.8-156.1s69.7-156.4 156.4-156.4 156.8 69.7 156.8 156.1c.4 86.3-69.7 156.4-156.4 156.4z"/><path d="m1809 1964.8c-86.3-.4-156.4-70.8-156.4-156.8.4-86.7 70.8-156.4 157.9-156.1 86 .4 155.7 71.2 155.3 157.9-.3 85.2-71.2 155.3-156.8 155z"/><path d="m964.1 1003.7c0-20.7 15.9-37.3 36.2-37.6 21-.4 37.6 16.2 37.6 37.3 0 20.7-16.2 36.9-36.9 36.9-20.3.3-36.9-16-36.9-36.6z"/><path d="m512.9 478.6c0 20.7-15.9 36.9-36.5 37.3-20.7.4-37.6-16.6-37.3-37.3.4-20.3 17-36.9 37.3-36.5 20.3-.4 36.5 15.9 36.5 36.5z"/><path d="m1562.9 478.6c0 20.3-16.2 36.9-36.5 36.9-20.3.4-36.9-15.9-37.3-36.5-.4-21 16.2-37.6 36.9-37.6 20.3.3 36.9 17 36.9 37.2z"/><path d="m1142.7 898.5c0 20.7-16.2 36.5-36.9 36.5-20.3 0-36.9-16.6-36.9-36.9s17-36.9 37.3-36.9c20.3.4 36.5 16.6 36.5 37.3z"/><path d="m859.7 898.5c0-20.7 15.9-37.3 36.5-37.3 20.3 0 37.3 16.2 37.3 36.5.4 20.3-16.2 36.9-36.5 37.3-21.1.4-37.3-15.5-37.3-36.5z"/><path d="m408.1 1633.5c0 20.3-17 36.5-37.3 36.5-20.7-.4-36.5-16.2-36.2-37.3 0-20.7 17-36.9 37.3-36.5 19.6 0 36.2 17 36.2 37.3z"/><path d="m1667.7 1633.1c0 20.7-16.2 36.9-36.9 36.5-20.7 0-36.9-16.6-36.9-36.9s17-36.9 37.3-36.9 36.5 16.6 36.5 37.3z"/><path d="m754.6 793.7c0-20.7 15.9-37.3 36.5-37.3 20.3 0 37.3 16.6 37.3 36.5 0 20.3-16.6 36.9-36.9 37.3-20.7.4-36.6-15.4-36.9-36.5z"/><path d="m1316.5 1281.5c20.7 0 36.9 16.2 36.9 36.9 0 20.3-16.6 36.9-37.3 36.9-20.3 0-36.9-16.6-36.9-36.9.4-21.1 16.2-36.9 37.3-36.9z"/><path d="m649.4 687.1c1.1-21 18.1-36.2 39.1-35.1 19.9 1.1 35.8 18.4 34.7 38-1.1 20.7-18.1 36.2-38.4 35.4-20.3-.7-36.1-18-35.4-38.3z"/><path d="m617.7 1422.8c0 20.7-15.9 36.9-36.5 37.3-20.3 0-37.3-16.2-37.3-36.5-.4-20.3 16.2-36.9 36.5-37.3 21 0 37.3 15.5 37.3 36.5z"/><path d="m1384.4 1422.8c0-21 15.9-36.9 36.9-36.5 20.7 0 36.9 16.6 36.9 36.9s-16.6 36.9-37.3 36.9c-20.3-.4-36.5-16.3-36.5-37.3z"/><path d="m1247.5 793c0 21-15.5 36.9-36.2 37.3-20.3 0-37.3-16.2-37.3-36.5-.4-19.9 16.6-37.3 36.9-37.3s36.6 15.8 36.6 36.5z"/><path d="m371.6 410.4c-20.7 0-36.9-16.2-37.3-36.5 0-20.3 16.6-37.3 36.9-37.3s36.9 16.2 36.9 36.9c0 21-15.9 36.9-36.5 36.9z"/><path d="m1630.4 410.4c-20.7-.4-36.5-16.6-36.2-37.3.4-20.3 17-36.9 37.3-36.5s36.5 17.3 36.5 37.6c-.3 20.3-17.3 36.6-37.6 36.2z"/><path d="m685.6 1281.5c20.7 0 36.9 15.9 37.3 36.5.4 20.3-16.2 36.9-36.5 37.3-20.3 0-37.3-16.2-37.3-36.5-.4-20.7 16.2-37.3 36.5-37.3z"/><path d="m1489.5 1528.3c0-21 15.5-37.3 36.2-37.3 20.3-.4 37.3 16.2 37.6 36.5.4 20.3-15.9 36.9-36.5 37.3-21.1 0-37.3-15.5-37.3-36.5z"/><path d="m476.4 1564.8c-20.7 0-37.3-16.2-37.3-36.5s16.2-36.9 36.9-37.3c20.7 0 36.9 15.9 36.9 36.5 0 21.1-15.9 37-36.5 37.3z"/><path d="m580.8 546.9c20.7-.4 36.9 15.9 37.3 36.5.4 20.3-16.2 37.3-36.5 37.6-19.9.4-37.3-16.6-37.3-36.9-.4-20.6 16.2-37.2 36.5-37.2z"/><path d="m1315.7 652c20.7 0 36.9 15.9 37.3 36.5 0 20.7-16.2 36.9-36.9 36.9-20.3 0-36.9-16.2-37.3-36.5-.3-20.2 16.3-36.9 36.9-36.9z"/><path d="m1384 583.8c0-20.7 16.2-36.9 36.9-36.9s37.3 16.6 37.3 36.9c0 19.9-17.3 37.3-37.3 37.3-20.3-.4-36.9-17.4-36.9-37.3z"/><path d="m859.3 1108.1c0-20.7 16.2-36.9 36.9-36.9 19.9 0 36.9 17 36.9 37.3 0 19.9-17.3 37.3-37.3 36.9-19.9-.1-36.5-16.7-36.5-37.3z"/><path d="m1143.1 1108.4c0 20.3-17 36.9-37.3 36.9-19.9-.4-36.9-17.7-36.5-37.6s17.3-36.9 37.3-36.5c20.2.3 36.5 16.6 36.5 37.2z"/><path d="m754.2 1212.1c.7-20.7 17.7-36.2 38-35.8 20.3.7 36.9 18.1 35.8 38-.7 20.3-18.4 36.5-38.4 35.8-19.9-.3-36.2-18.1-35.4-38z"/><path d="m1210.9 1176.3c20.7-.4 36.9 15.9 37.3 36.5.4 20.3-16.6 37.3-36.5 37.6-19.9.4-37.3-16.6-37.6-36.9-.4-20.2 16.2-36.8 36.8-37.2z"/></svg>